<svg width="77" height="77" viewBox="0 0 77 77" fill="none" xmlns="http://www.w3.org/2000/svg">
<path d="M38.5 53.9L53.1929 39.2071C53.5834 38.8166 53.5834 38.1834 53.1929 37.7929L49.2171 33.8171C48.8266 33.4266 48.1934 33.4266 47.8029 33.8171L42.35 39.27V24.1C42.35 23.5477 41.9023 23.1 41.35 23.1H35.65C35.0977 23.1 34.65 23.5477 34.65 24.1V39.27L29.1971 33.8171C28.8066 33.4266 28.1734 33.4266 27.7829 33.8171L23.8071 37.7929C23.4166 38.1834 23.4166 38.8166 23.8071 39.2071L38.5 53.9ZM38.5 77C33.1742 77 28.1692 75.9887 23.485 73.9662C18.8008 71.9462 14.7262 69.2038 11.2613 65.7387C7.79625 62.2737 5.05377 58.1992 3.0338 53.515C1.01127 48.8308 0 43.8258 0 38.5C0 33.1742 1.01127 28.1692 3.0338 23.485C5.05377 18.8008 7.79625 14.7262 11.2613 11.2613C14.7262 7.79625 18.8008 5.05248 23.485 3.02995C28.1692 1.00998 33.1742 0 38.5 0C43.8258 0 48.8308 1.00998 53.515 3.02995C58.1992 5.05248 62.2737 7.79625 65.7387 11.2613C69.2038 14.7262 71.9462 18.8008 73.9662 23.485C75.9887 28.1692 77 33.1742 77 38.5C77 43.8258 75.9887 48.8308 73.9662 53.515C71.9462 58.1992 69.2038 62.2737 65.7387 65.7387C62.2737 69.2038 58.1992 71.9462 53.515 73.9662C48.8308 75.9887 43.8258 77 38.5 77ZM38.5 69.3C47.0983 69.3 54.3812 66.3162 60.3487 60.3487C66.3162 54.3812 69.3 47.0983 69.3 38.5C69.3 29.9017 66.3162 22.6187 60.3487 16.6512C54.3812 10.6838 47.0983 7.7 38.5 7.7C29.9017 7.7 22.6187 10.6838 16.6512 16.6512C10.6838 22.6187 7.7 29.9017 7.7 38.5C7.7 47.0983 10.6838 54.3812 16.6512 60.3487C22.6187 66.3162 29.9017 69.3 38.5 69.3Z" fill="#F34113"/>
</svg>
