<?xml version="1.0" encoding="UTF-8"?>
<svg id="Layer_2" xmlns="http://www.w3.org/2000/svg" viewBox="0 0 492.29 60.64"><defs><style>.cls-1{fill:#0147C1;stroke-width:0px;}</style></defs><g id="Layer_1-2"><path class="cls-1" d="M0,4.53C0,2.52,1.63.89,3.64.89h24.63c22.18,0,29.07,7.15,29.07,18.07,0,6.35-2.51,11.99-10.82,13.86v.18c8.68,1.7,10.55,6.98,10.55,12.97v10.14c0,2.01-1.63,3.64-3.64,3.64h-16.16c-2.01,0-3.64-1.63-3.64-3.64v-10.94c0-4.11-1.52-5.55-5.1-5.55h-3.1c-1,0-1.82.81-1.82,1.82v14.67c0,2.01-1.63,3.64-3.64,3.64H3.64c-2.01,0-3.64-1.63-3.64-3.64V4.53ZM28.35,29.69c4.02,0,5.99-1.7,5.99-5.63,0-3.49-1.79-5.46-6.08-5.46h-2.83c-1,0-1.82.81-1.82,1.82v7.45c0,1,.81,1.82,1.82,1.82h2.92Z"/><path class="cls-1" d="M322.74,39.8h13.28c1.63,0,3.13,1.06,3.5,2.65.67,2.89,2.65,4.6,6.43,4.6,4.92,0,6.35-2.33,6.35-4.74,0-1.97-.8-3.4-3.04-3.94-1.97-.63-6.26-1.16-10.2-1.61-4.38-.62-10.47-1.88-14.13-4.11-3.84-2.32-6.26-6.53-6.26-12.61,0-11.99,10.02-20.03,28.62-20.03s25.93,6.34,27.22,16.51c.27,2.16-1.45,4.06-3.62,4.06h-12.24c-1.62,0-2.93-1.15-3.36-2.7-.8-2.89-3.03-4.27-6.47-4.27-4.11,0-6.26,1.97-6.26,4.38,0,1.88.81,3.04,2.15,3.76,1.7.72,5.9,1.34,11,2.06,6.26.8,10.91,1.79,14.31,3.67,4.29,2.51,6.71,6.62,6.71,12.61,0,10.91-5.9,20.57-29.61,20.57-20.69,0-26.74-7.92-27.99-16.73-.31-2.18,1.42-4.11,3.62-4.11Z"/><path class="cls-1" d="M384.87.89h37.71c2.01,0,3.64,1.63,3.64,3.64v10.43c0,2.01-1.63,3.64-3.64,3.64h-15.92c-1,0-1.82.81-1.82,1.82v3.61c0,1,.81,1.82,1.82,1.82h11.48c1,0,1.82.81,1.82,1.82v5.22c0,1-.81,1.82-1.82,1.82h-11.48c-1,0-1.82.81-1.82,1.82v3.7c0,1,.81,1.82,1.82,1.82h16.63c2.01,0,3.64,1.63,3.64,3.64v10.43c0,2.01-1.63,3.64-3.64,3.64h-38.43c-2.01,0-3.64-1.63-3.64-3.64V4.53c0-2.01,1.63-3.64,3.64-3.64Z"/><path class="cls-1" d="M434.84.89h25.96c1.51,0,2.86.93,3.4,2.35l9.75,25.65h.18l-.39-24.3c-.03-2.03,1.61-3.7,3.64-3.7h11.27c2.01,0,3.64,1.63,3.64,3.64v51.58c0,2.01-1.63,3.64-3.64,3.64h-24.43c-1.52,0-2.87-.94-3.41-2.36l-11.72-31.19h-.18l.95,29.79c.07,2.05-1.58,3.75-3.64,3.75h-11.39c-2.01,0-3.64-1.63-3.64-3.64V4.53c0-2.01,1.63-3.64,3.64-3.64Z"/><path class="cls-1" d="M281.73,0c-9.7,0-17.73,2.56-23.42,7.42-5.72-4.87-13.82-7.42-23.57-7.42s-17.73,2.56-23.44,7.42c-5.71-4.87-13.79-7.42-23.55-7.42s-17.73,2.56-23.44,7.42c-5.71-4.87-13.79-7.42-23.55-7.42s-17.73,2.56-23.44,7.42c-5.71-4.87-13.8-7.42-23.57-7.42-20.58,0-32.87,11.21-32.87,30s11.97,30.64,32.87,30.64c9.96,0,17.86-2.46,23.53-7.31,5.62,4.85,13.51,7.31,23.47,7.31s17.84-2.46,23.52-7.31c5.62,4.85,13.51,7.31,23.47,7.31s17.84-2.46,23.52-7.31c5.62,4.85,13.51,7.31,23.47,7.31s17.84-2.46,23.52-7.31c5.62,4.85,13.51,7.31,23.47,7.31,20.99,0,33.03-11.17,33.03-30.64S302.41,0,281.73,0ZM252.26,36.89c-3.33,3.43-8.89,9.15-17.51,9.15-7.64,0-13.08-5.34-16.67-8.89-.46-.45-.89-.86-1.29-1.24-2.95-2.79-7.69-2.67-10.54.25l-.73.76c-3.28,3.41-8.76,9.12-17.76,9.12-8.16,0-13.52-5.41-17.07-8.99-.4-.38-.74-.74-1.07-1.06-2.9-2.84-7.62-2.8-10.52.05-.28.28-.59.59-.92.94-3.55,3.61-8.87,9.05-17.4,9.05-7.65,0-13.08-5.34-16.67-8.87-.46-.46-.89-.87-1.29-1.27-3.05-2.84-7.85-2.7-10.72.28-.31.33-.64.69-1.01,1.07-3.76,4.02-9.45,10.13-18.13,8.63-9.27-1.58-12.65-9.19-12.73-15.22-.1-6.63,3.76-14.1,12.55-15.85,1.04-.2,2.03-.3,2.99-.3,7.52,0,12.6,5.89,15.77,9.57l.49.58c1.34,1.55,3.28,2.49,5.34,2.57,2.08.05,4.14-.71,5.61-2.18.38-.38.79-.79,1.22-1.24,3.6-3.66,9.02-9.19,16.58-9.19,8.46,0,13.8,5.66,17.33,9.42l.84.87c1.4,1.48,3.38,2.33,5.41,2.33,2.08-.02,3.99-.79,5.41-2.26.31-.31.63-.64.97-1.01,3.55-3.73,8.91-9.35,17.02-9.35,9.02,0,14.5,6,17.76,9.58l.58.63c1.4,1.52,3.32,2.38,5.38,2.41,2.06.03,3.99-.71,5.46-2.16.36-.36.76-.78,1.19-1.2,3.6-3.68,9.04-9.25,16.62-9.25,8.53,0,13.87,5.71,17.4,9.47l.81.86c1.42,1.48,3.36,2.24,5.41,2.26,2.09-.02,4.12-.92,5.56-2.47l.84-.92c5.54-6.1,11.66-11.76,20.34-8.21,7.26,2.95,9.8,9.65,9.76,14.93-.05,5.21-2.67,11.79-9.88,14.6-8.97,3.48-15.45-3.2-19.76-7.62-.49-.53-.97-1.01-1.4-1.43-2.99-2.94-7.78-2.99-10.67-.08l-.89.91Z"/></g></svg>