<?xml version="1.0" encoding="UTF-8"?>
<svg id="Layer_2" data-name="Layer 2" xmlns="http://www.w3.org/2000/svg" viewBox="0 0 85.55 50.07">
  <defs>
    <style>
      .cls-1 {
        fill: #f34113;
      }

      .cls-2 {
        fill: #f5ded9;
      }
    </style>
  </defs>
  <g id="artwork">
    <g>
      <ellipse class="cls-1" cx="42.77" cy="25.03" rx="42.77" ry="25.03"/>
      <g>
        <path class="cls-2" d="M25.63,31.28h-3.44c-.45,0-.67-.29-.67-.61,0-.45.36-.99,1.01-.99h.79l-.2-1.64h-3.51l-.86,1.64h.77c.45,0,.65.29.65.63,0,.45-.36.97-.97.97h-3.48c-.45,0-.67-.29-.67-.61,0-.45.38-.99,1.01-.99h1.01l5.24-9.94c.4-.76.77-1.15,1.04-1.15.29,0,.5.4.58,1.15l1.06,9.94h.99c.45,0,.65.29.65.63,0,.45-.36.97-1.01.97ZM22.55,22.53l-2.09,3.93h2.5l-.41-3.93Z"/>
        <path class="cls-2" d="M32.4,31.37c-1.08,0-1.73-.25-2.38-.68-.13.54-.58.79-.99.79-.34,0-.74-.27-.63-.79l2.2-10.35h-.72c-.45,0-.65-.29-.65-.61,0-.45.36-.97.97-.97h1.17c.68,0,.97.16.97.65,0,.14-.02.31-.05.5l-.61,2.88c.76-.47,1.57-.76,2.45-.76,2.12,0,3.13,1.58,3.13,3.48,0,2.63-1.91,5.87-4.86,5.87ZM33.8,23.63c-1.1,0-1.96.74-2.63,1.58l-.68,3.19c.27.63.85,1.39,2.21,1.39,1.89,0,2.92-2.27,2.92-4,0-1.19-.54-2.16-1.82-2.16Z"/>
        <path class="cls-2" d="M42.7,31.37c-2.02,0-3.35-1.62-3.35-3.71,0-3.33,2.86-5.64,5.33-5.64,1.89,0,3.42,1.3,3.42,3.48,0,3.13-2.84,5.87-5.4,5.87ZM44.32,23.63c-1.57,0-3.33,1.49-3.33,3.76,0,1.41.86,2.38,2.03,2.38,1.71,0,3.42-1.93,3.42-3.92,0-1.37-.92-2.21-2.12-2.21Z"/>
        <path class="cls-2" d="M58.05,31.37c-1.4,0-2.03-.7-2.03-1.28-.5.5-1.93,1.28-3.03,1.28-1.6,0-2.47-.86-2.47-2.38,0-.34.04-.68.13-1.08l.9-4.18h-1.1c-.45,0-.65-.29-.65-.61,0-.45.4-.97,1.01-.97h1.48c.96,0,1.17.16.96,1.15l-.97,4.61c-.05.27-.09.49-.09.72,0,.7.36,1.15,1.15,1.15,1.19,0,2.86-1.24,3.15-2.59l.76-3.46h-1.1c-.45,0-.63-.29-.63-.61,0-.45.38-.97.99-.97h1.48c.95,0,1.17.16.95,1.15l-1.26,5.92c-.09.45.4.56.7.56.45,0,.67.29.67.61,0,.45-.38.97-.99.97Z"/>
        <path class="cls-2" d="M69.48,23.74h-4.05l-.7,3.26c-.14.67-.22,1.22-.22,1.64,0,.79.29,1.15,1.01,1.15,1.17,0,2.04-1.46,2.04-2.49,0-.54.58-.83.97-.83.34,0,.61.2.61.83,0,1.67-1.84,4.07-3.98,4.07-1.62,0-2.3-.58-2.3-2.14,0-.58.07-1.33.27-2.23l.7-3.26h-1.73c-.45,0-.67-.29-.67-.61,0-.45.38-.97,1.01-.97h1.75l.54-2.7c.11-.52.58-.79.95-.79s.74.32.65.79l-.56,2.7h4.05c.45,0,.67.27.67.59,0,.45-.38.99-1.01.99Z"/>
      </g>
    </g>
  </g>
</svg>