<?xml version="1.0" encoding="UTF-8"?>
<svg id="Layer_2" data-name="Layer 2" xmlns="http://www.w3.org/2000/svg" viewBox="0 0 75.93 75.93">
  <defs>
    <style>
      .cls-1 {
        fill: #0458c6;
      }

      .cls-2 {
        fill: #f5ded9;
      }
    </style>
  </defs>
  <g id="artwork">
    <g>
      <path class="cls-1" d="M75.93,37.87c0-4.27-2.35-7.22-6.83-7.83,1.48-1.4,2.23-3.44,2.23-6.04,0-4.78-2.97-7.94-8.6-7.94-.79,0-1.53.07-2.21.2.4-1.04.63-2.26.63-3.62,0-4.78-2.97-7.94-8.6-7.94-2.6,0-4.62.66-6.06,1.85-.54-3.98-3.44-6.54-8.5-6.54h-.04c-5.06,0-7.95,2.54-8.5,6.54-1.44-1.16-3.46-1.85-6.06-1.85-5.62,0-8.6,3.15-8.6,7.94,0,1.36.21,2.58.63,3.62-.68-.13-1.42-.2-2.21-.2-5.62,0-8.6,3.15-8.6,7.94,0,2.6.76,4.64,2.23,6.04-4.48.61-6.83,3.57-6.83,7.83,0,4.57,2.34,7.44,6.83,8.03-1.48,1.4-2.23,3.44-2.23,6.04,0,4.78,2.97,7.94,8.6,7.94.79,0,1.53-.07,2.21-.2-.4,1.04-.63,2.26-.63,3.62,0,4.78,2.97,7.94,8.6,7.94,2.6,0,4.62-.66,6.06-1.85.54,3.98,3.44,6.54,8.5,6.54h.04c5.06,0,7.95-2.54,8.5-6.54,1.44,1.16,3.46,1.85,6.06,1.85,5.62,0,8.6-3.15,8.6-7.94,0-1.36-.21-2.58-.63-3.62.68.13,1.42.2,2.21.2,5.62,0,8.6-3.15,8.6-7.94,0-2.6-.75-4.64-2.23-6.04,4.5-.57,6.83-3.44,6.83-8.03Z"/>
      <g>
        <path class="cls-2" d="M27.4,33.13h-.18l-4.12,10.53c-.18.47-.63.72-.99.72-.32,0-.83-.22-.83-.61v-5.11l-2.57,5.11c-.2.4-.52.61-.88.61-.34,0-.49-.23-.49-.72v-10.53h-.29c-.45,0-.65-.29-.65-.61,0-.45.36-.97.97-.97h2.14c.43,0,.65.27.65.61,0,.45-.38.97-.99.97h-.25v7.2h.07v-.22l2.25-4.52c.41-.85.74-.99,1.04-.99s.59.23.59,1.17v4.2h.05v-.25l2.66-6.59h-.25c-.45,0-.65-.29-.65-.61,0-.45.38-.97.97-.97h2.05c.43,0,.65.27.65.61,0,.45-.36.97-.97.97Z"/>
        <path class="cls-2" d="M30.74,44.17c-2.02,0-3.35-1.62-3.35-3.71,0-3.33,2.86-5.64,5.33-5.64,1.89,0,3.42,1.3,3.42,3.48,0,3.13-2.84,5.87-5.4,5.87ZM32.36,36.43c-1.57,0-3.33,1.49-3.33,3.76,0,1.41.86,2.38,2.03,2.38,1.71,0,3.42-1.93,3.42-3.92,0-1.37-.92-2.21-2.12-2.21Z"/>
        <path class="cls-2" d="M46.43,38.8c-.58,0-.99-.31-.99-.88,0-.52.29-.99.68-1.24-.2-.18-.54-.25-.88-.25-1.71,0-3.06,1.04-3.19,1.6l-1.15,5.35c-.11.54-.52.79-.97.79-.36,0-.72-.29-.61-.79l1.46-6.84h-2.16c-.45,0-.67-.29-.67-.61,0-.45.4-.97,1.01-.97h2.56c.81,0,1.06.13,1.06.5,0,.07-.02.18-.04.27.56-.61,1.82-.9,3.04-.9s2.38.63,2.38,2c0,1.21-.63,1.98-1.53,1.98Z"/>
        <path class="cls-2" d="M58.52,36.54h-1.33l-2.79,2,1.53,3.75c.07.18.2.2.54.2h.86c.43,0,.65.29.65.63,0,.45-.38.97-1.01.97h-.86c-.76,0-1.4-.2-1.71-.95l-1.44-3.53-1.6,1.15-.54,2.63c-.11.54-.54.79-.99.79-.34,0-.72-.29-.61-.79l2.18-10.25h-1.24c-.45,0-.67-.29-.67-.61,0-.45.4-.97,1.01-.97h2.04c.47,0,.74.38.65.79l-1.42,6.61,3.31-2.41h-.56c-.45,0-.65-.29-.65-.61,0-.45.4-.97,1.01-.97h4.01c.45,0,.65.27.65.59,0,.45-.4.99-1.01.99Z"/>
      </g>
    </g>
  </g>
</svg>