<?xml version="1.0" encoding="UTF-8"?><svg id="Layer_2" xmlns="http://www.w3.org/2000/svg" viewBox="0 0 114.62 112.36"><defs><style>.cls-1{fill:#0f000a;stroke-width:0px;}</style></defs><g id="Layer_1-2"><path class="cls-1" d="M114.62,56.04c0-6.3-3.56-10.68-10.32-11.57,2.23-2.06,3.37-5.09,3.37-8.94,0-7.09-4.49-11.75-12.98-11.75-1.2,0-2.31.1-3.35.28.62-1.55.95-3.34.95-5.36,0-7.09-4.49-11.75-12.98-11.75-3.91,0-6.96.98-9.14,2.72-.82-5.9-5.2-9.66-12.83-9.66-.01,0-.02,0-.04,0s-.02,0-.04,0c-7.62,0-12.01,3.77-12.83,9.66-2.17-1.74-5.22-2.72-9.14-2.72-8.49,0-12.98,4.67-12.98,11.75,0,2.02.32,3.81.95,5.36-1.04-.18-2.15-.28-3.35-.28-8.49,0-12.98,4.67-12.98,11.75,0,3.85,1.14,6.88,3.37,8.94-6.76.89-10.32,5.27-10.32,11.57,0,6.77,3.53,11.01,10.31,11.86-2.22,2.06-3.36,5.08-3.36,8.93,0,7.09,4.49,11.75,12.98,11.75,1.2,0,2.31-.1,3.35-.28-.62,1.55-.95,3.34-.95,5.36,0,7.09,4.49,11.75,12.98,11.75,3.91,0,6.96-.98,9.14-2.72.82,5.9,5.2,9.66,12.83,9.66.01,0,.02,0,.04,0s.02,0,.04,0c7.62,0,12.01-3.77,12.83-9.66,2.17,1.74,5.22,2.72,9.14,2.72,8.49,0,12.98-4.67,12.98-11.75,0-2.02-.32-3.81-.95-5.36,1.04.18,2.15.28,3.35.28,8.49,0,12.98-4.67,12.98-11.75,0-3.84-1.14-6.87-3.36-8.93,6.78-.85,10.31-5.09,10.31-11.86ZM81.64,76.83c0,1.87.32,3.57.94,5.06-1.02-.16-2.1-.25-3.27-.25-7.76,0-12,3.68-12.87,9.61-2.16-1.73-5.19-2.66-9.09-2.66-.01,0-.02,0-.04,0s-.02,0-.04,0c-3.9,0-6.93.93-9.09,2.66-.88-5.92-5.11-9.61-12.87-9.61-1.17,0-2.26.09-3.27.25.62-1.49.94-3.19.94-5.06,0-6.54-3.42-10.98-10.38-11.86,2.29-2.1,3.43-5.16,3.43-8.93s-1.17-6.59-3.45-8.65c6.98-.88,10.4-5.31,10.4-11.86,0-1.87-.32-3.57-.94-5.06,1.02.16,2.1.25,3.27.25,7.76,0,12-3.68,12.87-9.61,2.16,1.73,5.19,2.66,9.09,2.66.01,0,.02,0,.04,0s.02,0,.04,0c3.9,0,6.93-.93,9.09-2.66.88,5.92,5.11,9.61,12.87,9.61,1.17,0,2.26-.09,3.27-.25-.62,1.49-.94,3.19-.94,5.06,0,6.55,3.43,10.99,10.4,11.86-2.28,2.06-3.45,5.03-3.45,8.65s1.14,6.83,3.43,8.93c-6.96.88-10.38,5.32-10.38,11.86Z"/><path class="cls-1" d="M78.93,56.13c0-2.38-1.34-4.03-3.89-4.37.84-.78,1.27-1.92,1.27-3.37,0-2.67-1.69-4.43-4.9-4.43-.45,0-.87.04-1.26.11.23-.58.36-1.26.36-2.02,0-2.67-1.69-4.43-4.9-4.43-1.48,0-2.63.37-3.45,1.03-.31-2.22-1.96-3.65-4.84-3.65,0,0,0,0-.01,0s0,0-.01,0c-2.88,0-4.53,1.42-4.84,3.65-.82-.65-1.97-1.03-3.45-1.03-3.2,0-4.9,1.76-4.9,4.43,0,.76.12,1.44.36,2.02-.39-.07-.81-.11-1.26-.11-3.2,0-4.9,1.76-4.9,4.43,0,1.45.43,2.59,1.27,3.37-2.55.34-3.89,1.99-3.89,4.37,0,2.55,1.33,4.15,3.89,4.48-.84.78-1.27,1.92-1.27,3.37,0,2.67,1.69,4.43,4.9,4.43.45,0,.87-.04,1.26-.11-.23.58-.36,1.26-.36,2.02,0,2.67,1.69,4.43,4.9,4.43,1.48,0,2.63-.37,3.45-1.03.31,2.22,1.96,3.65,4.84,3.65,0,0,0,0,.01,0s0,0,.01,0c2.88,0,4.53-1.42,4.84-3.65.82.65,1.97,1.03,3.45,1.03,3.2,0,4.9-1.76,4.9-4.43,0-.76-.12-1.44-.36-2.02.39.07.81.11,1.26.11,3.2,0,4.9-1.76,4.9-4.43,0-1.45-.43-2.59-1.27-3.37,2.56-.32,3.89-1.92,3.89-4.48Z"/></g></svg>