<svg width="77" height="77" viewBox="0 0 77 77" fill="none" xmlns="http://www.w3.org/2000/svg">
<path d="M23.1 38.5L37.7929 53.1929C38.1834 53.5834 38.8166 53.5834 39.2071 53.1929L43.1829 49.2171C43.5734 48.8266 43.5734 48.1934 43.1829 47.8029L37.73 42.35L52.9 42.35C53.4523 42.35 53.9 41.9023 53.9 41.35L53.9 35.65C53.9 35.0977 53.4523 34.65 52.9 34.65L37.73 34.65L43.1829 29.1971C43.5734 28.8066 43.5734 28.1734 43.1829 27.7829L39.2071 23.8071C38.8166 23.4166 38.1834 23.4166 37.7929 23.8071L23.1 38.5ZM-1.68289e-06 38.5C-1.45009e-06 33.1742 1.01127 28.1692 3.0338 23.485C5.05376 18.8008 7.79625 14.7262 11.2613 11.2612C14.7263 7.79625 18.8008 5.05376 23.485 3.0338C28.1692 1.01126 33.1742 -1.91569e-06 38.5 -1.68289e-06C43.8258 -1.45009e-06 48.8308 1.01127 53.515 3.0338C58.1992 5.05377 62.2737 7.79625 65.7387 11.2613C69.2037 14.7262 71.9475 18.8008 73.97 23.485C75.99 28.1692 77 33.1742 77 38.5C77 43.8258 75.99 48.8308 73.97 53.515C71.9475 58.1992 69.2037 62.2737 65.7387 65.7387C62.2737 69.2037 58.1992 71.9462 53.515 73.9662C48.8308 75.9887 43.8258 77 38.5 77C33.1742 77 28.1692 75.9887 23.485 73.9662C18.8008 71.9462 14.7263 69.2037 11.2613 65.7387C7.79625 62.2737 5.05376 58.1992 3.0338 53.515C1.01127 48.8308 -1.91569e-06 43.8258 -1.68289e-06 38.5ZM7.7 38.5C7.69999 47.0983 10.6838 54.3812 16.6513 60.3487C22.6188 66.3162 29.9017 69.3 38.5 69.3C47.0983 69.3 54.3812 66.3162 60.3487 60.3487C66.3162 54.3812 69.3 47.0983 69.3 38.5C69.3 29.9017 66.3162 22.6187 60.3488 16.6512C54.3812 10.6837 47.0983 7.7 38.5 7.7C29.9017 7.7 22.6188 10.6837 16.6513 16.6512C10.6838 22.6187 7.7 29.9017 7.7 38.5Z" fill="#FFA3C6"/>
</svg>
