<?xml version="1.0" encoding="UTF-8"?>
<svg id="Layer_2" xmlns="http://www.w3.org/2000/svg" version="1.1" viewBox="0 0 100 100">
  <!-- Generator: Adobe Illustrator 29.7.1, SVG Export Plug-In . SVG Version: 2.1.1 Build 8)  -->
  <defs>
    <style>
      .st0 {
        fill: #0458c6;
      }
    </style>
  </defs>
  <g id="Layer_1-2">
    <path class="st0" d="M100,49.9c0-5.6-3.1-9.5-9-10.3,1.9-1.8,2.9-4.5,2.9-8,0-6.3-3.9-10.5-11.3-10.5s-2,0-2.9.2c.5-1.4.8-3,.8-4.8,0-6.3-3.9-10.5-11.3-10.5s-6.1.9-8,2.4c-.7-5.3-4.5-8.6-11.2-8.6h0c-6.6,0-10.5,3.4-11.2,8.6-1.9-1.5-4.6-2.4-8-2.4-7.4,0-11.3,4.2-11.3,10.5s.3,3.4.8,4.8c-.9-.2-1.9-.2-2.9-.2-7.4,0-11.3,4.2-11.3,10.5s1,6.1,2.9,8c-5.9.8-9,4.7-9,10.3s3.1,9.8,9,10.6c-1.9,1.8-2.9,4.5-2.9,7.9,0,6.3,3.9,10.5,11.3,10.5s2,0,2.9-.2c-.5,1.4-.8,3-.8,4.8,0,6.3,3.9,10.5,11.3,10.5s6.1-.9,8-2.4c.7,5.3,4.5,8.6,11.2,8.6h0c6.6,0,10.5-3.4,11.2-8.6,1.9,1.5,4.6,2.4,8,2.4,7.4,0,11.3-4.2,11.3-10.5s-.3-3.4-.8-4.8c.9.2,1.9.2,2.9.2,7.4,0,11.3-4.2,11.3-10.5s-1-6.1-2.9-7.9c5.9-.8,9-4.5,9-10.6ZM71.2,68.4c0,1.7.3,3.2.8,4.5-.9-.1-1.8-.2-2.9-.2-6.8,0-10.5,3.3-11.2,8.6-1.9-1.5-4.5-2.4-7.9-2.4h0c-3.4,0-6,.8-7.9,2.4-.8-5.3-4.5-8.6-11.2-8.6s-2,0-2.9.2c.5-1.3.8-2.8.8-4.5,0-5.8-3-9.8-9.1-10.6,2-1.9,3-4.6,3-7.9s-1-5.9-3-7.7c6.1-.8,9.1-4.7,9.1-10.6s-.3-3.2-.8-4.5c.9.1,1.8.2,2.9.2,6.8,0,10.5-3.3,11.2-8.6,1.9,1.5,4.5,2.4,7.9,2.4h0c3.4,0,6-.8,7.9-2.4.8,5.3,4.5,8.6,11.2,8.6s2,0,2.9-.2c-.5,1.3-.8,2.8-.8,4.5,0,5.8,3,9.8,9.1,10.6-2,1.8-3,4.5-3,7.7s1,6.1,3,7.9c-6.1.8-9.1,4.7-9.1,10.6Z"/>
    <path class="st0" d="M68.9,50c0-2.1-1.2-3.6-3.4-3.9.7-.7,1.1-1.7,1.1-3,0-2.4-1.5-3.9-4.3-3.9s-.8,0-1.1,0c.2-.5.3-1.1.3-1.8,0-2.4-1.5-3.9-4.3-3.9s-2.3.3-3,.9c-.3-2-1.7-3.2-4.2-3.2h0c-2.5,0-4,1.3-4.2,3.2-.7-.6-1.7-.9-3-.9-2.8,0-4.3,1.6-4.3,3.9s.1,1.3.3,1.8c-.3,0-.7,0-1.1,0-2.8,0-4.3,1.6-4.3,3.9s.4,2.3,1.1,3c-2.2.3-3.4,1.8-3.4,3.9s1.2,3.7,3.4,4c-.7.7-1.1,1.7-1.1,3,0,2.4,1.5,3.9,4.3,3.9s.8,0,1.1,0c-.2.5-.3,1.1-.3,1.8,0,2.4,1.5,3.9,4.3,3.9s2.3-.3,3-.9c.3,2,1.7,3.2,4.2,3.2h0c2.5,0,4-1.3,4.2-3.2.7.6,1.7.9,3,.9,2.8,0,4.3-1.6,4.3-3.9s-.1-1.3-.3-1.8c.3,0,.7,0,1.1,0,2.8,0,4.3-1.6,4.3-3.9s-.4-2.3-1.1-3c2.2-.3,3.4-1.7,3.4-4Z"/>
  </g>
</svg>