<?xml version="1.0" encoding="UTF-8"?>
<svg id="Layer_2" xmlns="http://www.w3.org/2000/svg" version="1.1" viewBox="0 0 120 120">
  <!-- Generator: Adobe Illustrator 29.5.1, SVG Export Plug-In . SVG Version: 2.1.0 Build 141)  -->
  <defs>
    <style>
      .st0 {
        fill: #f5ded9;
      }

      .st1 {
        fill: #171414;
      }
    </style>
  </defs>
  <g id="artwork">
    <g>
      <path class="st0" d="M59.8,0c-6.7,0-11.4,3.7-12.4,10.8-2.2-2.3-5.4-3.5-9.5-3.5-7.6,0-12.5,4.7-12.5,13.6s.1,2.4.3,3.5c-1.6-.6-3.6-1-5.7-1-7.6,0-12.6,4.7-12.6,13.6s1.1,7.3,2.9,9.6C4,47.4,0,52,0,60H0c0,8.1,4,12.6,10.3,13.5-1.8,2.3-2.9,5.5-2.9,9.6,0,8.9,5,13.6,12.6,13.6s4.1-.3,5.7-1c-.2,1.1-.3,2.2-.3,3.5,0,8.9,5,13.6,12.5,13.6s7.3-1.2,9.5-3.5c1,7.1,5.6,10.8,12.4,10.8s11.7-3.7,12.7-10.8c2.2,2.3,5.4,3.5,9.5,3.5,7.6,0,12.6-4.7,12.6-13.6s-.1-2.4-.3-3.5c1.6.6,3.6,1,5.7,1,7.6,0,12.6-4.7,12.6-13.6s-1.1-7.3-2.9-9.6c6.3-.9,10.3-5.4,10.3-13.4h0c0-8-4-12.6-10.3-13.5,1.8-2.3,2.9-5.5,2.9-9.6,0-8.9-5-13.6-12.6-13.6s-4.1.3-5.7,1c.2-1.1.3-2.2.3-3.5,0-8.9-5-13.6-12.6-13.6s-7.3,1.2-9.5,3.5C71.6,3.7,67.1,0,59.8,0Z"/>
      <path class="st1" d="M84,60l-23.3-23.3c-.4-.4-1-.4-1.4,0l-7,7c-.4.4-.4,1,0,1.4l8.9,8.9h-24.2c-.5,0-1,.4-1,1v10c0,.5.5,1,1,1h24.2l-8.9,8.9c-.4.4-.4,1,0,1.4l7,7c.4.4,1,.4,1.4,0l23.3-23.3Z"/>
    </g>
  </g>
</svg>